<?xml version="1.0" encoding="utf-8"?>
<!-- Generator: Adobe Illustrator 16.0.0, SVG Export Plug-In . SVG Version: 6.00 Build 0)  -->
<!DOCTYPE svg PUBLIC "-//W3C//DTD SVG 1.1//EN" "http://www.w3.org/Graphics/SVG/1.1/DTD/svg11.dtd">
<svg version="1.1" id="Layer_1" xmlns="http://www.w3.org/2000/svg" xmlns:xlink="http://www.w3.org/1999/xlink" x="0px" y="0px"
	 width="128px" height="128px" viewBox="0 0 128 128" enable-background="new 0 0 128 128" xml:space="preserve">
<g>
	<g>
		<g>
			<g>
				<g>
					<g>
						<path fill="#282D33" d="M64.32,128c-0.664-0.007-1.388-0.012-2.083-0.034C27.319,126.822-0.168,97.199,0.965,61.932
							C1.5,45.242,8.356,29.643,20.273,18.009C32.667,5.91,49.073-0.525,66.351,0.034c34.923,1.146,62.412,30.772,61.279,66.041
							c-0.537,16.693-7.396,32.292-19.315,43.923C96.419,121.606,80.795,128,64.32,128z M64.268,4
							C32.055,4,6.005,29.503,4.963,62.06c-1.063,33.065,24.69,60.836,57.406,61.908c0.649,0.021,1.301,0.032,1.946,0.032
							c32.214,0.003,58.269-25.497,59.317-58.054c1.063-33.065-24.692-60.84-57.412-61.914C65.568,4.011,64.915,4,64.268,4z"/>
					</g>
				</g>
			</g>
		</g>
	</g>
	<g>
		<g>
			<g>
				<path fill="#282D33" d="M64.715,108.143L59.538,90.07L57.71,75.895l-7.112-0.61l-3.952-7.746l5.676-13.983l11.957,0.89
					L50.689,44.344l9.473-5.003l-3.093-5.299l10.974-9.222l9.295,3.752c3.728-1.245,21.377-7.185,27.481-10.087l1.717,3.612
					C99.507,25.438,78.778,32.309,77.899,32.6l-0.696,0.23l-8.428-3.402l-6.553,5.507l3.497,5.993l-7.553,3.989l11.168,8.302
					l-2.434,5.432L54.932,57.76l-3.893,9.589l2.112,4.141l8.113,0.696l2.22,17.222l2.335,8.112l11.94-22.522l-2.085-0.146
					l-0.693-11.453l8.002-0.089l6.312-7.434l5.475,10.975l8.514-5.271l4.441,9.896l14.556-23.949l3.418,2.077l-18.507,30.452
					l-5.688-12.67l-8.357,5.174l-4.725-9.474l-3.569,4.203l-5.625,0.063l0.229,3.756l4.72,0.33L64.715,108.143z"/>
			</g>
			<g>
				<path fill="#282D33" d="M14.951,69.951L2.268,69.51l0.139-3.998l10.146,0.354c-2.254-11.118-2.072-11.352-1.439-12.168
					l1.493-0.78l7.085-0.366l12.188-10.088l-4.068-5.45c-4.03,4.548-4.332,4.514-5.35,4.41l-1.554-1.021l-0.233-1.272l3.77-25.29
					l3.956,0.59L25.555,33.52c0.297-0.336,0.592-0.671,0.876-0.997l3.109,0.119l6.682,8.951l-0.327,2.737L21.732,56.054
					l-1.172,0.457l-5.644,0.292c0.404,2.411,1.247,6.775,2.062,10.748L14.951,69.951z"/>
			</g>
			<g>
				<path fill="#282D33" d="M35.814,109.622l-12.143-8.765l-1.604-11.344l-5.097-11.17l4.953-13.233l21.094,15.561L35.814,109.622z
					 M27.393,98.611l5.967,4.306l5.129-20.615L23.812,71.474l-2.514,6.718l4.504,9.871c0.169,0.378,0.256,0.759,0.262,1.144
					L27.393,98.611z"/>
			</g>
			<g>
				<path fill="#282D33" d="M43.419,26.742l-7.88-18.665l1.76-0.81C47.622,2.514,54.576,1.67,57.086,1.528l2.752-0.156
					l-4.326,16.335L43.419,26.742z M40.739,10.111l4.378,10.369l6.886-5.144l2.514-9.496C51.555,6.316,46.892,7.446,40.739,10.111z"
					/>
			</g>
		</g>
	</g>
</g>
</svg>
